<?xml version="1.0" encoding="iso-8859-1"?>
<!-- Generator: Adobe Illustrator 19.0.0, SVG Export Plug-In . SVG Version: 6.00 Build 0)  -->
<svg version="1.1" id="Capa_1" xmlns="http://www.w3.org/2000/svg" xmlns:xlink="http://www.w3.org/1999/xlink" x="0px" y="0px"
	 viewBox="0 0 418.54 418.54" style="enable-background:new 0 0 418.54 418.54;" xml:space="preserve">
<g>
	<g>
		<path d="M365.566,162.496c0.016-6.432-5.2-11.648-11.648-11.648c-0.912,0-1.792,0.096-2.608,0.304
			c-11.952,2.72-22.64,8.752-31.008,17.104c-11.568,11.568-18.72,27.552-18.72,45.2l0.016,16.016l-32.416-32.416
			c29.424-49.152,23.136-113.728-19.216-156.08c-49.984-49.984-131.04-49.984-181.024,0V0h-16v68.288h68.192v-16h-40.88
			c43.664-43.664,114.72-43.664,158.4,0c35.968,35.968,41.904,90.336,18.624,132.848l-74.416-74.416
			c-12.448-12.448-32.816-12.448-45.248,0c-12.448,12.448-12.448,32.816,0,45.248l60.88,60.88c-9.2-0.944-18.72,1.984-25.776,9.024
			c-4.864,4.864-7.744,10.928-8.8,17.232c-30.144,1.2-60.688-9.472-83.648-32.432L68.942,222c25.04,25.04,57.856,37.264,90.672,37.2
			l-16.272,61.008c-2.816,10.64-0.096,22.432,8.224,30.768l37.216,37.216c40.464,40.464,106.032,40.464,146.496,0
			c19.6-19.6,29.6-45.088,30.208-70.752l0.112,0.096v-2.512c0-0.048,0-0.096,0-0.112L365.566,162.496z"/>
	</g>
</g>
</svg>
